<?xml version="1.0" encoding="UTF-8"?>
<svg xmlns="http://www.w3.org/2000/svg" xmlns:xlink="http://www.w3.org/1999/xlink" width="120px" height="120px" viewBox="0 0 120 120" version="1.1">
<g id="surface1">
<path style=" stroke:none;fill-rule:nonzero;fill:rgb(73.725492%,67.058825%,46.666667%);fill-opacity:1;" d="M 29.800781 31.953125 C 34.121094 31.953125 38.445312 31.949219 42.765625 31.945312 C 42.828125 31.945312 42.894531 31.945312 42.960938 31.945312 C 44.351562 31.945312 45.742188 31.945312 47.132812 31.945312 C 47.816406 31.945312 48.5 31.945312 49.179688 31.945312 C 49.25 31.945312 49.316406 31.945312 49.386719 31.945312 C 51.585938 31.945312 53.785156 31.941406 55.984375 31.941406 C 58.246094 31.9375 60.507812 31.9375 62.765625 31.9375 C 63.085938 31.9375 63.40625 31.9375 63.726562 31.9375 C 63.820312 31.9375 63.820312 31.9375 63.917969 31.9375 C 64.925781 31.9375 65.9375 31.9375 66.949219 31.933594 C 67.964844 31.933594 68.984375 31.933594 70 31.933594 C 70.605469 31.933594 71.207031 31.933594 71.8125 31.933594 C 72.214844 31.933594 72.621094 31.933594 73.023438 31.933594 C 73.253906 31.933594 73.484375 31.933594 73.714844 31.933594 C 78.296875 31.914062 82.402344 33.523438 85.667969 36.765625 C 86.054688 37.15625 86.421875 37.546875 86.753906 37.988281 C 86.789062 38.035156 86.789062 38.035156 86.828125 38.085938 C 87.957031 39.546875 88.867188 41.195312 89.417969 42.960938 C 89.460938 43.09375 89.5 43.21875 89.542969 43.347656 C 90.828125 47.304688 90.238281 51.691406 88.414062 55.371094 C 87.792969 56.582031 87 57.679688 86.074219 58.675781 C 86.003906 58.757812 85.933594 58.839844 85.863281 58.921875 C 85.453125 59.390625 85.007812 59.8125 84.519531 60.203125 C 84.410156 60.289062 84.304688 60.378906 84.195312 60.46875 C 82.710938 61.734375 80.902344 62.640625 79.054688 63.234375 C 79.011719 63.246094 78.964844 63.261719 78.917969 63.277344 C 77.382812 63.769531 75.78125 63.980469 74.167969 63.980469 C 74.082031 63.980469 73.996094 63.980469 73.910156 63.980469 C 73.675781 63.980469 73.441406 63.980469 73.207031 63.976562 C 72.953125 63.976562 72.699219 63.976562 72.445312 63.976562 C 72.003906 63.976562 71.566406 63.976562 71.125 63.976562 C 70.492188 63.976562 69.855469 63.976562 69.222656 63.976562 C 68.191406 63.976562 67.160156 63.976562 66.128906 63.976562 C 65.128906 63.976562 64.125 63.976562 63.125 63.976562 C 63.0625 63.976562 63.003906 63.976562 62.9375 63.972656 C 62.628906 63.972656 62.320312 63.972656 62.007812 63.972656 C 59.441406 63.972656 56.871094 63.972656 54.304688 63.972656 C 54.304688 61.675781 54.304688 59.378906 54.304688 57.015625 C 54.925781 57.011719 55.550781 57.011719 56.191406 57.011719 C 58.1875 57.007812 60.183594 57.003906 62.179688 57 C 62.488281 57 62.796875 57 63.109375 56.996094 C 63.203125 56.996094 63.203125 56.996094 63.296875 56.996094 C 64.292969 56.996094 65.292969 56.992188 66.292969 56.992188 C 67.316406 56.992188 68.34375 56.988281 69.367188 56.984375 C 70 56.984375 70.632812 56.984375 71.261719 56.984375 C 71.699219 56.984375 72.132812 56.980469 72.566406 56.980469 C 72.816406 56.980469 73.066406 56.980469 73.316406 56.980469 C 74.503906 56.980469 75.644531 56.960938 76.785156 56.597656 C 76.835938 56.582031 76.886719 56.566406 76.941406 56.550781 C 79.242188 55.816406 81.082031 54.21875 82.195312 52.089844 C 82.25 51.980469 82.25 51.980469 82.308594 51.871094 C 83.339844 49.824219 83.476562 47.378906 82.777344 45.203125 C 82.324219 43.855469 81.636719 42.722656 80.65625 41.683594 C 80.609375 41.628906 80.558594 41.574219 80.507812 41.519531 C 78.910156 39.832031 76.601562 39.003906 74.316406 38.914062 C 73.804688 38.902344 73.289062 38.902344 72.777344 38.902344 C 72.621094 38.902344 72.46875 38.902344 72.3125 38.902344 C 71.976562 38.902344 71.636719 38.902344 71.300781 38.898438 C 70.792969 38.898438 70.285156 38.898438 69.777344 38.898438 C 68.925781 38.898438 68.078125 38.894531 67.226562 38.894531 C 66.074219 38.894531 64.925781 38.890625 63.773438 38.890625 C 61.007812 38.886719 58.242188 38.882812 55.476562 38.878906 C 49.300781 38.867188 43.121094 38.859375 36.757812 38.851562 C 36.757812 52.140625 36.757812 65.425781 36.757812 79.117188 C 35.125 79.117188 33.492188 78.628906 32.261719 77.515625 C 32.210938 77.472656 32.164062 77.433594 32.109375 77.390625 C 30.785156 76.25 29.953125 74.578125 29.800781 72.835938 C 29.792969 72.605469 29.792969 72.371094 29.792969 72.136719 C 29.792969 72.070312 29.792969 72 29.792969 71.925781 C 29.792969 71.695312 29.792969 71.460938 29.792969 71.226562 C 29.792969 71.058594 29.792969 70.886719 29.792969 70.71875 C 29.792969 70.351562 29.792969 69.984375 29.792969 69.617188 C 29.792969 69.066406 29.792969 68.519531 29.792969 67.972656 C 29.792969 67.054688 29.792969 66.132812 29.792969 65.214844 C 29.792969 64.304688 29.792969 63.390625 29.792969 62.480469 C 29.792969 62.425781 29.792969 62.367188 29.792969 62.308594 C 29.792969 62.019531 29.792969 61.734375 29.792969 61.445312 C 29.792969 59.410156 29.792969 57.371094 29.796875 55.332031 C 29.796875 53.355469 29.796875 51.375 29.796875 49.394531 C 29.796875 49.332031 29.796875 49.273438 29.796875 49.210938 C 29.796875 48.597656 29.796875 47.984375 29.796875 47.371094 C 29.796875 46.125 29.796875 44.875 29.796875 43.625 C 29.796875 43.570312 29.796875 43.511719 29.796875 43.453125 C 29.796875 39.621094 29.800781 35.789062 29.800781 31.953125 Z M 29.800781 31.953125 "/>
<path style=" stroke:none;fill-rule:nonzero;fill:rgb(73.725492%,67.058825%,46.666667%);fill-opacity:1;" d="M 41.867188 44.515625 C 47.296875 44.511719 52.726562 44.503906 58.320312 44.5 C 60.039062 44.496094 61.753906 44.496094 63.523438 44.492188 C 65.613281 44.492188 65.613281 44.492188 66.59375 44.492188 C 67.324219 44.492188 68.054688 44.492188 68.78125 44.488281 C 69.527344 44.488281 70.273438 44.488281 71.015625 44.488281 C 71.421875 44.488281 71.824219 44.488281 72.230469 44.484375 C 72.59375 44.484375 72.960938 44.484375 73.324219 44.484375 C 73.457031 44.484375 73.589844 44.484375 73.722656 44.484375 C 74.996094 44.476562 74.996094 44.476562 75.609375 44.761719 C 75.660156 44.785156 75.710938 44.808594 75.761719 44.832031 C 76.550781 45.21875 77.128906 45.921875 77.453125 46.726562 C 77.585938 47.125 77.664062 47.492188 77.660156 47.917969 C 77.660156 47.984375 77.660156 47.984375 77.65625 48.054688 C 77.636719 49.007812 77.265625 49.828125 76.597656 50.5 C 75.75 51.296875 74.769531 51.449219 73.660156 51.441406 C 73.550781 51.441406 73.441406 51.441406 73.335938 51.441406 C 73.042969 51.441406 72.75 51.441406 72.453125 51.441406 C 72.136719 51.4375 71.820312 51.4375 71.503906 51.4375 C 70.953125 51.4375 70.402344 51.4375 69.855469 51.4375 C 69.058594 51.433594 68.265625 51.433594 67.472656 51.433594 C 66.183594 51.433594 64.894531 51.433594 63.605469 51.429688 C 62.355469 51.425781 61.105469 51.425781 59.851562 51.425781 C 59.734375 51.425781 59.734375 51.425781 59.617188 51.425781 C 59.007812 51.421875 58.394531 51.421875 57.785156 51.421875 C 54.800781 51.421875 51.8125 51.414062 48.824219 51.410156 C 48.824219 57.222656 48.824219 63.03125 48.824219 69.019531 C 57.949219 69.019531 67.070312 69.019531 76.46875 69.019531 C 76.46875 69.449219 76.46875 69.824219 76.398438 70.234375 C 76.386719 70.285156 76.378906 70.332031 76.371094 70.378906 C 76.105469 71.824219 75.390625 73.019531 74.375 74.070312 C 74.332031 74.113281 74.289062 74.160156 74.242188 74.207031 C 72.933594 75.472656 71.160156 75.988281 69.378906 75.984375 C 69.289062 75.984375 69.199219 75.984375 69.113281 75.984375 C 68.871094 75.984375 68.625 75.984375 68.382812 75.984375 C 68.121094 75.984375 67.859375 75.984375 67.59375 75.984375 C 67.140625 75.984375 66.6875 75.984375 66.230469 75.984375 C 65.574219 75.984375 64.917969 75.984375 64.257812 75.984375 C 63.191406 75.984375 62.125 75.984375 61.058594 75.980469 C 60.023438 75.980469 58.988281 75.980469 57.953125 75.980469 C 57.886719 75.980469 57.824219 75.980469 57.757812 75.980469 C 57.4375 75.980469 57.117188 75.980469 56.796875 75.980469 C 54.140625 75.980469 51.484375 75.980469 48.824219 75.976562 C 48.824219 76.082031 48.824219 76.082031 48.828125 76.1875 C 48.828125 76.84375 48.832031 77.503906 48.835938 78.160156 C 48.835938 78.496094 48.835938 78.835938 48.839844 79.171875 C 48.839844 79.5 48.84375 79.828125 48.84375 80.152344 C 48.84375 80.277344 48.84375 80.402344 48.84375 80.527344 C 48.851562 81.492188 48.804688 82.449219 48.480469 83.371094 C 48.464844 83.414062 48.449219 83.460938 48.433594 83.503906 C 48.15625 84.273438 47.769531 84.972656 47.222656 85.582031 C 47.183594 85.632812 47.140625 85.683594 47.097656 85.734375 C 46.042969 86.957031 44.625 87.722656 43.039062 87.984375 C 42.992188 87.992188 42.945312 88 42.898438 88.007812 C 42.550781 88.0625 42.226562 88.046875 41.867188 88.046875 C 41.867188 73.679688 41.867188 59.316406 41.867188 44.515625 Z M 41.867188 44.515625 "/>
</g>
</svg>
